#N canvas 1 77 765 608 10;
#X obj 313 46 gemhead;
#X obj 165 468 translateXYZ 0 0 0;
#X obj 313 178 alpha;
#X obj 165 564 square;
#X obj 165 497 pix_image star.png;
#X obj 165 519 pix_texture;
#X obj 313 68 t a b;
#X obj 364 101 f;
#X obj 364 123 + 1;
#X obj 364 145 mod 1000;
#X floatatom 474 114 5 0 0 0 - - -, f 5;
#X obj 195 367 random 1000;
#X obj 288 366 random 1000;
#X obj 195 389 / 1000;
#X obj 279 395 / 1000;
#X obj 194 345 r \$0-NewStar;
#X obj 291 341 r \$0-NewStar;
#X obj 306 10 loadbang;
#X obj 371 18 tgl 15 0 empty empty empty 17 7 0 10 -262144 -1 -1 0
1;
#X obj 426 16 r \$0-NewStar;
#X obj 477 67 random 800;
#X obj 356 289 tabread lfo;
#X obj 357 171 / 1000;
#X obj 357 191 * 1000;
#X obj 452 234 sel 0;
#X obj 357 213 int;
#X obj 357 259 t f f;
#X obj 357 235 change;
#X obj 451 280 s \$0-NewStar;
#X obj 659 135 r \$0-NewStar;
#X obj 661 167 bng 15 250 50 0 empty empty empty 17 7 0 10 -262144
-1 -1;
#X obj 425 42 t b b;
#X msg 425 64 -1;
#X obj 319 449 r \$0-NewStar;
#X obj 319 471 random 1000;
#X obj 319 493 / 1000;
#X obj 611 319 s \$0-NewStar;
#X obj 611 258 loadbang;
#X obj 195 419 * 8;
#X obj 195 441 - 4;
#X obj 279 425 * 8;
#X obj 279 447 - 4;
#X obj 187 105 random 1000;
#X obj 187 80 r \$0-NewStar;
#X obj 187 151 t f b f;
#X obj 199 193 random;
#X obj 165 323 colourRGB 1 0 1 0;
#X obj 628 293 bng 15 250 50 0 empty empty empty 17 7 0 10 -262144
-1 -1;
#X obj 113 185 / 1000;
#X obj 199 217 / 1000;
#X obj 319 515 * 0.12;
#X obj 319 537 + 0.06;
#X obj 250 246 r RED;
#X obj 197 249 min 0;
#X obj 477 89 + 79;
#X obj 511 95 r SpeedMin;
#X obj 550 66 r SpeedMax;
#X connect 0 0 6 0;
#X connect 1 0 4 0;
#X connect 2 0 46 0;
#X connect 4 0 5 0;
#X connect 5 0 3 0;
#X connect 6 0 2 0;
#X connect 6 1 7 0;
#X connect 7 0 8 0;
#X connect 8 0 9 0;
#X connect 9 0 7 1;
#X connect 9 0 22 0;
#X connect 10 0 9 1;
#X connect 10 0 22 1;
#X connect 11 0 13 0;
#X connect 12 0 14 0;
#X connect 13 0 38 0;
#X connect 14 0 40 0;
#X connect 15 0 11 0;
#X connect 16 0 12 0;
#X connect 17 0 0 0;
#X connect 18 0 0 0;
#X connect 19 0 31 0;
#X connect 20 0 54 0;
#X connect 21 0 46 4;
#X connect 22 0 23 0;
#X connect 23 0 25 0;
#X connect 24 0 28 0;
#X connect 25 0 27 0;
#X connect 26 0 21 0;
#X connect 26 1 24 0;
#X connect 27 0 26 0;
#X connect 29 0 30 0;
#X connect 31 0 32 0;
#X connect 31 1 20 0;
#X connect 32 0 7 1;
#X connect 33 0 34 0;
#X connect 34 0 35 0;
#X connect 35 0 50 0;
#X connect 37 0 36 0;
#X connect 38 0 39 0;
#X connect 39 0 1 1;
#X connect 40 0 41 0;
#X connect 41 0 1 2;
#X connect 42 0 44 0;
#X connect 43 0 42 0;
#X connect 44 0 48 0;
#X connect 44 1 45 0;
#X connect 44 2 45 1;
#X connect 45 0 49 0;
#X connect 46 0 1 0;
#X connect 47 0 36 0;
#X connect 48 0 46 3;
#X connect 49 0 53 0;
#X connect 50 0 51 0;
#X connect 51 0 3 1;
#X connect 52 0 53 1;
#X connect 53 0 46 1;
#X connect 54 0 10 0;
#X connect 55 0 54 1;
#X connect 56 0 20 1;
