#N canvas 1 96 797 589 10;
#N canvas 87 154 247 179 Gem.init 0;
#X obj 118 46 loadbang;
#X msg 118 81 reset;
#X obj 118 113 outlet;
#X connect 0 0 1 0;
#X connect 1 0 2 0;
#X restore 38 37 pd Gem.init;
#N canvas 340 107 682 322 gemwin 0;
#X obj 102 122 tgl 15 0 \$0-gemstart \$0-gemstart empty 17 7 0 10 -262144
-1 -1 1 1;
#X obj 102 161 r \$0-gemstart;
#X obj 102 182 select 1 0;
#X msg 102 214 create \, 1;
#X msg 177 215 destroy;
#X obj 102 239 t a;
#X obj 318 54 inlet;
#X obj 318 255 gemwin;
#X obj 318 100 t a a;
#X obj 318 287 outlet;
#X obj 350 128 route create destroy;
#X obj 350 150 t b;
#X msg 350 172 1;
#X obj 390 150 t b;
#X msg 390 172 0;
#X obj 350 195 t f;
#X msg 350 219 set \$1;
#X text 118 122 rendering;
#X connect 1 0 2 0;
#X connect 2 0 3 0;
#X connect 2 1 4 0;
#X connect 3 0 5 0;
#X connect 4 0 5 0;
#X connect 5 0 8 0;
#X connect 6 0 8 0;
#X connect 7 0 9 0;
#X connect 8 0 7 0;
#X connect 8 1 10 0;
#X connect 10 0 11 0;
#X connect 10 1 13 0;
#X connect 11 0 12 0;
#X connect 12 0 15 0;
#X connect 13 0 14 0;
#X connect 14 0 15 0;
#X connect 15 0 16 0;
#X connect 16 0 0 0;
#X coords 0 -1 1 1 85 40 1 100 100;
#X restore 37 65 pd gemwin;
#X msg 530 119 -1;
#X obj 494 111 f;
#X obj 494 133 + 1;
#X obj 356 313 cos;
#X obj 356 335 + 1;
#X obj 356 357 / 2;
#X obj 495 67 until;
#X obj 439 185 t f f;
#X obj 406 389 tabwrite lfo;
#X msg 437 466 \; lfo const 0;
#X obj 425 231 / 1002;
#X floatatom 512 212 5 0 0 0 - - -, f 5;
#X obj 587 37 table lfo 1000;
#X obj 494 155 mod 1000;
#X msg 491 42 1000;
#X obj 520 300 cos;
#X floatatom 496 340 12 0 0 0 - - -, f 12;
#X floatatom 497 263 12 0 0 0 - - -, f 12;
#X obj 425 253 * 6.2832;
#X obj 425 275 + 3.1416;
#N canvas 1 77 842 518 MANYSTARS 0;
#X obj 40 44 star;
#X obj 50 54 star;
#X obj 81 44 star;
#X obj 91 54 star;
#X obj 123 45 star;
#X obj 133 55 star;
#X obj 164 45 star;
#X obj 174 55 star;
#X obj 207 45 star;
#X obj 217 55 star;
#X obj 248 45 star;
#X obj 258 55 star;
#X obj 290 46 star;
#X obj 300 56 star;
#X obj 331 46 star;
#X obj 341 56 star;
#X obj 35 80 star;
#X obj 45 90 star;
#X obj 76 80 star;
#X obj 86 90 star;
#X obj 118 81 star;
#X obj 128 91 star;
#X obj 159 81 star;
#X obj 169 91 star;
#X obj 202 81 star;
#X obj 212 91 star;
#X obj 243 81 star;
#X obj 253 91 star;
#X obj 285 82 star;
#X obj 295 92 star;
#X obj 326 82 star;
#X obj 336 92 star;
#X obj 40 112 star;
#X obj 50 122 star;
#X obj 81 112 star;
#X obj 91 122 star;
#X obj 123 113 star;
#X obj 133 123 star;
#X obj 164 113 star;
#X obj 174 123 star;
#X obj 207 113 star;
#X obj 217 123 star;
#X obj 248 113 star;
#X obj 258 123 star;
#X obj 290 114 star;
#X obj 300 124 star;
#X obj 331 114 star;
#X obj 341 124 star;
#X obj 35 148 star;
#X obj 45 158 star;
#X obj 76 148 star;
#X obj 86 158 star;
#X obj 118 149 star;
#X obj 128 159 star;
#X obj 159 149 star;
#X obj 169 159 star;
#X obj 202 149 star;
#X obj 212 159 star;
#X obj 243 149 star;
#X obj 253 159 star;
#X obj 285 150 star;
#X obj 295 160 star;
#X obj 326 150 star;
#X obj 336 160 star;
#X obj 41 186 star;
#X obj 51 196 star;
#X obj 82 186 star;
#X obj 92 196 star;
#X obj 124 187 star;
#X obj 134 197 star;
#X obj 165 187 star;
#X obj 175 197 star;
#X obj 208 187 star;
#X obj 218 197 star;
#X obj 249 187 star;
#X obj 259 197 star;
#X obj 291 188 star;
#X obj 301 198 star;
#X obj 332 188 star;
#X obj 342 198 star;
#X obj 36 222 star;
#X obj 46 232 star;
#X obj 77 222 star;
#X obj 87 232 star;
#X obj 119 223 star;
#X obj 129 233 star;
#X obj 160 223 star;
#X obj 170 233 star;
#X obj 203 223 star;
#X obj 213 233 star;
#X obj 244 223 star;
#X obj 254 233 star;
#X obj 286 224 star;
#X obj 296 234 star;
#X obj 327 224 star;
#X obj 337 234 star;
#X obj 41 254 star;
#X obj 51 264 star;
#X obj 82 254 star;
#X obj 92 264 star;
#X obj 124 255 star;
#X obj 134 265 star;
#X obj 165 255 star;
#X obj 175 265 star;
#X obj 208 255 star;
#X obj 218 265 star;
#X obj 249 255 star;
#X obj 259 265 star;
#X obj 291 256 star;
#X obj 301 266 star;
#X obj 332 256 star;
#X obj 342 266 star;
#X obj 36 290 star;
#X obj 46 300 star;
#X obj 77 290 star;
#X obj 87 300 star;
#X obj 119 291 star;
#X obj 129 301 star;
#X obj 160 291 star;
#X obj 170 301 star;
#X obj 203 291 star;
#X obj 213 301 star;
#X obj 244 291 star;
#X obj 254 301 star;
#X obj 286 292 star;
#X obj 296 302 star;
#X obj 327 292 star;
#X obj 337 302 star;
#X obj 36 326 star;
#X obj 46 336 star;
#X obj 77 326 star;
#X obj 87 336 star;
#X obj 119 327 star;
#X obj 129 337 star;
#X obj 160 327 star;
#X obj 170 337 star;
#X obj 203 327 star;
#X obj 213 337 star;
#X obj 244 327 star;
#X obj 254 337 star;
#X obj 286 328 star;
#X obj 296 338 star;
#X obj 327 328 star;
#X obj 337 338 star;
#X obj 392 41 star;
#X obj 402 51 star;
#X obj 433 41 star;
#X obj 443 51 star;
#X obj 475 42 star;
#X obj 485 52 star;
#X obj 516 42 star;
#X obj 526 52 star;
#X obj 559 42 star;
#X obj 569 52 star;
#X obj 600 42 star;
#X obj 610 52 star;
#X obj 642 43 star;
#X obj 652 53 star;
#X obj 683 43 star;
#X obj 693 53 star;
#X obj 387 77 star;
#X obj 397 87 star;
#X obj 428 77 star;
#X obj 438 87 star;
#X obj 470 78 star;
#X obj 480 88 star;
#X obj 511 78 star;
#X obj 521 88 star;
#X obj 554 78 star;
#X obj 564 88 star;
#X obj 595 78 star;
#X obj 605 88 star;
#X obj 637 79 star;
#X obj 647 89 star;
#X obj 678 79 star;
#X obj 688 89 star;
#X obj 392 109 star;
#X obj 402 119 star;
#X obj 433 109 star;
#X obj 443 119 star;
#X obj 475 110 star;
#X obj 485 120 star;
#X obj 516 110 star;
#X obj 526 120 star;
#X obj 559 110 star;
#X obj 569 120 star;
#X obj 600 110 star;
#X obj 610 120 star;
#X obj 642 111 star;
#X obj 652 121 star;
#X obj 683 111 star;
#X obj 693 121 star;
#X obj 387 145 star;
#X obj 397 155 star;
#X obj 428 145 star;
#X obj 438 155 star;
#X obj 470 146 star;
#X obj 480 156 star;
#X obj 511 146 star;
#X obj 521 156 star;
#X obj 554 146 star;
#X obj 564 156 star;
#X obj 595 146 star;
#X obj 605 156 star;
#X obj 637 147 star;
#X obj 647 157 star;
#X obj 678 147 star;
#X obj 688 157 star;
#X obj 393 183 star;
#X obj 403 193 star;
#X obj 434 183 star;
#X obj 444 193 star;
#X obj 476 184 star;
#X obj 486 194 star;
#X obj 517 184 star;
#X obj 527 194 star;
#X obj 560 184 star;
#X obj 570 194 star;
#X obj 601 184 star;
#X obj 611 194 star;
#X obj 643 185 star;
#X obj 653 195 star;
#X obj 684 185 star;
#X obj 694 195 star;
#X obj 388 219 star;
#X obj 398 229 star;
#X obj 429 219 star;
#X obj 439 229 star;
#X obj 471 220 star;
#X obj 481 230 star;
#X obj 512 220 star;
#X obj 522 230 star;
#X obj 555 220 star;
#X obj 565 230 star;
#X obj 596 220 star;
#X obj 606 230 star;
#X obj 638 221 star;
#X obj 648 231 star;
#X obj 679 221 star;
#X obj 689 231 star;
#X obj 393 251 star;
#X obj 403 261 star;
#X obj 434 251 star;
#X obj 444 261 star;
#X obj 476 252 star;
#X obj 486 262 star;
#X obj 517 252 star;
#X obj 527 262 star;
#X obj 560 252 star;
#X obj 570 262 star;
#X obj 601 252 star;
#X obj 611 262 star;
#X obj 643 253 star;
#X obj 653 263 star;
#X obj 684 253 star;
#X obj 694 263 star;
#X obj 388 287 star;
#X obj 398 297 star;
#X obj 429 287 star;
#X obj 439 297 star;
#X obj 471 288 star;
#X obj 481 298 star;
#X obj 512 288 star;
#X obj 522 298 star;
#X obj 555 288 star;
#X obj 565 298 star;
#X obj 596 288 star;
#X obj 606 298 star;
#X obj 638 289 star;
#X obj 648 299 star;
#X obj 679 289 star;
#X obj 689 299 star;
#X restore 167 56 pd MANYSTARS;
#X obj 170 85 star;
#X obj 51 390 s RED;
#X obj 117 218 vsl 15 128 0 1 0 0 empty empty empty 0 -9 0 10 -262144
-1 -1 12700 1;
#X obj 134 151 line 0 20;
#X obj 491 14 loadbang;
#X floatatom 652 384 12 0 0 0 - - -, f 12;
#X msg 649 437 1.2e+06;
#X msg 649 416 set \$1;
#X msg 142 122 0 \, 1 1.2e+06;
#X obj 117 354 change;
#X obj 117 191 pow 2;
#X floatatom 646 321 5 0 0 0 - - -, f 5;
#X obj 646 350 * 60000;
#X obj 91 476 s SpeedMin;
#X obj 163 475 s SpeedMax;
#X floatatom 92 454 5 0 0 0 - - -, f 5;
#X floatatom 177 455 5 0 0 0 - - -, f 5;
#X connect 0 0 1 0;
#X connect 2 0 3 1;
#X connect 3 0 4 0;
#X connect 4 0 15 0;
#X connect 5 0 6 0;
#X connect 6 0 7 0;
#X connect 7 0 10 0;
#X connect 8 0 3 0;
#X connect 9 0 12 0;
#X connect 9 1 10 1;
#X connect 12 0 20 0;
#X connect 15 0 3 1;
#X connect 15 0 9 0;
#X connect 15 0 13 0;
#X connect 16 0 8 0;
#X connect 17 0 18 0;
#X connect 19 0 17 0;
#X connect 20 0 21 0;
#X connect 21 0 5 0;
#X connect 25 0 24 0;
#X connect 25 0 32 0;
#X connect 26 0 33 0;
#X connect 27 0 16 0;
#X connect 28 0 30 0;
#X connect 30 0 29 0;
#X connect 31 0 26 0;
#X connect 33 0 25 0;
#X connect 34 0 35 0;
#X connect 35 0 28 0;
#X connect 38 0 36 0;
#X connect 39 0 37 0;
